<svg width="19" height="16" viewBox="0 0 19 16" fill="none" xmlns="http://www.w3.org/2000/svg">
    <path
        d="M7.66664 16C7.13621 16 6.6275 15.7893 6.25243 15.4142C5.87736 15.0391 5.66664 14.5304 5.66664 14C5.66664 13.4696 5.87736 12.9609 6.25243 12.5858C6.6275 12.2107 7.13621 12 7.66664 12C8.19708 12 8.70578 12.2107 9.08086 12.5858C9.45593 12.9609 9.66664 13.4696 9.66664 14C9.66664 14.5304 9.45593 15.0391 9.08086 15.4142C8.70578 15.7893 8.19708 16 7.66664 16ZM14.6666 16C14.1362 16 13.6275 15.7893 13.2524 15.4142C12.8774 15.0391 12.6666 14.5304 12.6666 14C12.6666 13.4696 12.8774 12.9609 13.2524 12.5858C13.6275 12.2107 14.1362 12 14.6666 12C15.1971 12 15.7058 12.2107 16.0809 12.5858C16.4559 12.9609 16.6666 13.4696 16.6666 14C16.6666 14.5304 16.4559 15.0391 16.0809 15.4142C15.7058 15.7893 15.1971 16 14.6666 16ZM1.62864 1.923C1.379 1.91495 1.14228 1.81012 0.968541 1.63068C0.794798 1.45125 0.697655 1.21127 0.697655 0.9615C0.697655 0.711732 0.794798 0.471755 0.968541 0.292318C1.14228 0.11288 1.379 0.00805181 1.62864 0L2.77964 0C3.68164 0 4.46164 0.626 4.65764 1.506L5.91064 7.148C6.10664 8.028 6.88664 8.654 7.78864 8.654H15.3006L16.7426 2.884H7.39764C7.15035 2.87272 6.91693 2.76654 6.74593 2.58755C6.57492 2.40857 6.47949 2.17055 6.47949 1.923C6.47949 1.67545 6.57492 1.43743 6.74593 1.25845C6.91693 1.07946 7.15035 0.973284 7.39764 0.962H16.7426C17.035 0.961914 17.3235 1.02848 17.5862 1.15663C17.849 1.28479 18.079 1.47116 18.2589 1.70158C18.4388 1.93201 18.5638 2.20041 18.6244 2.4864C18.685 2.77238 18.6796 3.06842 18.6086 3.352L17.1666 9.12C17.0627 9.5362 16.8226 9.90568 16.4844 10.1697C16.1463 10.4337 15.7296 10.5771 15.3006 10.577H7.78864C6.91344 10.5771 6.06437 10.2787 5.38166 9.7311C4.69895 9.18348 4.22343 8.41938 4.03364 7.565L2.77964 1.923H1.62864Z"
        fill="white" />
</svg>
    